<?xml version="1.0" encoding="UTF-8" standalone="no"?>
<svg
   id="Layer_1"
   style="enable-background:new 0 0 64 64;"
   version="1.1"
   viewBox="0 0 64 64"
   xml:space="preserve"
   xmlns="http://www.w3.org/2000/svg"
   xmlns:svg="http://www.w3.org/2000/svg"><defs
     id="defs4865" /><style
     type="text/css"
     id="style4840">
	.st0{fill:url(#SVGID_1_);}
	.st1{fill:url(#SVGID_2_);}
	.st2{fill:url(#SVGID_3_);}
	.st3{fill:url(#SVGID_4_);}
	.st4{fill:#FFFFFF;}
	.st5{fill:url(#SVGID_5_);}
	.st6{fill:url(#SVGID_6_);}
	.st7{fill:url(#SVGID_7_);}
	.st8{fill:url(#SVGID_8_);}
	.st9{fill:url(#SVGID_9_);}
	.st10{fill:#FFBF0B;}
	.st11{fill:#1A1A54;}
	.st12{fill:#DC2863;}
	.st13{fill:none;stroke:#1A1A54;stroke-width:3;stroke-linecap:round;stroke-linejoin:round;stroke-miterlimit:10;}
	.st14{fill:#0B85FF;}
	.st15{opacity:0.5;fill:#FFFFFF;}
	.st16{fill:#00AF64;}
	.st17{fill:#00D17C;}
	.st18{fill:none;stroke:#00D17C;stroke-width:3;stroke-linecap:round;stroke-linejoin:round;stroke-miterlimit:10;}
</style><path
     class="st12"
     d="M35,9c0-4.4-3.6-8-8-8c-3.5,0-6.5,2.2-7.5,5.4C18.2,5.5,16.7,5,15,5c-4.4,0-8,3.6-8,8c0,1.1,0.2,2.2,0.6,3.1  C3.9,16.8,1,20,1,24c0,4.4,3.6,8,8,8c1.5,0,2.8-0.4,4-1.1c1.2,0.7,2.5,1.1,4,1.1c4.3,0,7.8-3.4,8-7.6c2.9-1.2,5-4.1,5-7.4  c0-0.2,0-0.4,0-0.6C32.9,15.2,35,12.4,35,9z"
     id="path4842"
     style="fill:#f4861d;fill-opacity:1" /><path
     class="st16"
     d="M32,0l-3.1,10.1c-3,9.8-11,17.4-21,19.9L0,32c0,17.7,14.3,32,32,32s32-14.3,32-32C64,14.3,49.7,0,32,0z"
     id="path4844"
     style="fill:#77b827;fill-opacity:1" /><path
     class="st11"
     d="M25,31.5c0,3.6-2.9,6.5-6.5,6.5S12,35.1,12,31.5"
     id="path4846"
     style="fill:#1a5434;fill-opacity:1" /><circle
     class="st11"
     cx="46"
     cy="32"
     r="7"
     id="circle4848"
     style="fill:#1a5434;fill-opacity:1" /><circle
     class="st12"
     cx="46"
     cy="30"
     r="3"
     id="circle4850"
     style="fill:#f4861d;fill-opacity:1" /><line
     class="st18"
     x1="32"
     x2="32"
     y1="46"
     y2="56"
     id="line4852"
     style="stroke:#aad700;stroke-opacity:1" /><line
     class="st18"
     x1="38"
     x2="38"
     y1="46"
     y2="56"
     id="line4854"
     style="stroke:#aad700;stroke-opacity:1" /><line
     class="st18"
     x1="26"
     x2="26"
     y1="46"
     y2="56"
     id="line4856"
     style="stroke:#aad700;stroke-opacity:1" /><g
     id="g4860"><path
       class="st11"
       d="M21.4,48.3c3.5-0.1,7.1-0.1,10.6-0.1c3.6,0,7.2,0,10.6,0.1l0.1,0c0.9,0,1.7,0.8,1.6,1.7c0,0.7-0.4,1.2-1,1.5   c-1.9,0.8-3.8,1.2-5.7,1.5c-1.9,0.3-3.8,0.4-5.7,0.4c-1.9,0-3.8-0.1-5.7-0.4c-1.9-0.3-3.8-0.7-5.7-1.5c-0.9-0.4-1.3-1.4-0.9-2.3   C20,48.8,20.6,48.4,21.4,48.3L21.4,48.3z"
       id="path4858"
       style="fill:#1a5434;fill-opacity:1" /></g></svg>
